<svg aria-hidden="true" style="position:absolute;width:0;height:0" xmlns="http://www.w3.org/2000/svg" overflow="hidden"><defs><symbol id="icon-smartphone" viewBox="0 0 20 32"><path  d="M17 0H3a3 3 0 00-3 3v26a3 3 0 003 3h14a3 3 0 003-3V3a3 3 0 00-3-3zM3 2h14c.6 0 1 .4 1 1v21H2V3c0-.6.4-1 1-1zm14 28H3a1 1 0 01-1-1v-3h16v3c0 .6-.4 1-1 1z"/><path fill="var(--color1, #757575)" d="M4.7 27.5a.9.9 0 010 1.3 1 1 0 01-1.4 0 .9.9 0 010-1.3 1 1 0 011.4 0z"/></symbol><symbol id="icon-twitter" viewBox="0 0 32 32"><path d="M32 6c-1.1.6-2.4 1-3.7 1.1 1.3-.8 2.3-2 2.8-3.6-1.2.7-2.6 1.3-4 1.6h-.2a6.5 6.5 0 00-11.3 4.5c0 .5 0 1 .2 1.5A18.6 18.6 0 012.2 4.2c-.5 1-.9 2-.9 3.3 0 2.3 1.2 4.3 3 5.5-1.1 0-2.2-.4-3-.9v.1c0 3.2 2.2 5.8 5.2 6.5l-1.6.2-1.3-.1a6.6 6.6 0 006.1 4.5 13 13 0 01-8.1 2.8H-.2 0A18.5 18.5 0 0028.7 9.5c1.3-1 2.4-2 3.3-3.4z"/></symbol><symbol id="icon-linkedin" viewBox="0 0 32 32"><path d="M32 32V20.3c0-5.8-1.2-10.2-8-10.2a7 7 0 00-6.2 3.4h-.1v-2.9h-6.4V32H18V21.4c0-2.8.6-5.5 4-5.5s3.5 3.2 3.5 5.7V32H32zM.5 10.6h6.7V32H.5V10.6zM3.8 0A3.8 3.8 0 000 3.8c0 2.2 1.7 4 3.8 4 2.2 0 3.9-1.8 3.9-4S6 0 3.8 0z"/></symbol><symbol id="icon-instagram" viewBox="0 0 32 32"><path d="M32 9.4c-.1-1.7-.4-2.9-.8-3.9s-1-2-1.8-2.8A8 8 0 0026.6.9c-1-.5-2.2-.7-4-.8a108.2 108.2 0 00-17 .7c-1.1.5-2 1-2.9 1.9C2 3.5 1.3 4.4 1 5.5.5 6.5.2 7.7.2 9.4a108.2 108.2 0 00.7 17 8 8 0 001.8 3c.8.7 1.8 1.4 2.9 1.8 1 .4 2.2.6 3.9.7a117.3 117.3 0 0017-.7 8.2 8.2 0 004.7-4.7c.4-1 .7-2.2.8-3.9V16 9.4zm-3 13c0 1.6-.2 2.5-.5 3a5.3 5.3 0 01-3 3c-.6.3-1.4.6-3 .6a112.7 112.7 0 01-15.9-.5 5 5 0 01-1.8-1.2 5 5 0 01-1.2-1.8c-.2-.6-.5-1.5-.5-3a112.7 112.7 0 01.5-16c.3-.6.7-1.3 1.2-1.8a5 5 0 011.8-1.1c.6-.3 1.5-.5 3-.6a114.2 114.2 0 0116 .5 5 5 0 011.7 1.2 5 5 0 011.2 1.9c.3.5.5 1.4.6 3a112.7 112.7 0 010 12.9z"/><path d="M16 7.8A8.2 8.2 0 007.9 16a8.2 8.2 0 0016.5 0c0-4.5-3.7-8.2-8.2-8.2zm0 13.5a5.3 5.3 0 010-10.6 5.3 5.3 0 110 10.6zM26.6 7.5a2 2 0 01-3.8 0 2 2 0 013.8 0z"/></symbol><symbol id="icon-facebook" viewBox="0 0 32 32"><path d="M21.3 5.3h3v-5C23 0 21.6 0 20 0H20c-4.2 0-7.1 2.6-7.1 7.5V12H8.2v5.7H13V32h5.7V17.7H23l.7-5.7h-5.2V8c0-1.6.4-2.7 2.7-2.7z"/></symbol><symbol id="icon-diagram" viewBox="0 0 32 32"><path fill="var(--color3, #2196f3)" d="M15 15h1v4.8h-1V15zm4.2 2.1h1v2.7h-1V17zm-8.5 1.6h1v1h-1v-1zm-3.2-.5h1v1.6h-1v-1.6z"/><path fill="var(--color4, #212121)" d="M1.6 28.3h25.6c.9 0 1.6-.7 1.6-1.6v-2.1c0-1-.7-1.6-1.6-1.6h-.5V9.7l3-2.9.7.2a1.6 1.6 0 10-1.5-1l-2.2 2.2V7c0-1-.8-1.6-1.6-1.6H3.7c-.9 0-1.6.7-1.6 1.6v16h-.5c-.9 0-1.6.7-1.6 1.6v2c0 1 .7 1.7 1.6 1.7zM30.4 4.8a.5.5 0 010 1.1.5.5 0 010-1zM3.2 7c0-.3.2-.6.5-.6h21.4c.2 0 .5.3.5.6v2.2l-1 1V8c0-.3-.3-.5-.6-.5H4.8c-.3 0-.5.2-.5.5v13.4c0 .3.2.5.5.5H24c.3 0 .5-.2.5-.5v-9.7l1-1V23H3.3V7zM8 13.9A1.6 1.6 0 109 16.6l1.9 1 .6-.1 4-4.5 3.8 3 .7-.1 3.4-3.2v8.1H5.3V8.6h18.2v2.6l-3.8 3.6-4-3h-.2l-.4.1-4 4.5-1.5-.7v-.2c0-.9-.7-1.6-1.6-1.6zm.5 1.6a.5.5 0 01-1 0 .5.5 0 011 0zm3.2 8.5h5.4v.6c0 .3-.3.5-.6.5h-4.2a.5.5 0 01-.6-.5V24zm-10.6.6c0-.3.2-.6.5-.6h9v.6c0 .8.8 1.6 1.7 1.6h4.2c1 0 1.6-.8 1.6-1.6V24h9c.4 0 .6.3.6.6v2c0 .4-.2.6-.5.6H1.6a.5.5 0 01-.5-.5v-2.1z"/></symbol><symbol id="icon-clock" viewBox="0 0 32 32"><path fill="var(--color4, #212121)" d="M31.3 15.3a15.3 15.3 0 10-20 14.6H12l.2-.4 4-12.3a2 2 0 10-1-3.6l-5-5.1a.6.6 0 00-1 .9l5.2 5c-.2.3-.2.6-.2 1 0 .5.3 1 .7 1.4l-3.7 11.7a14 14 0 1110.7-.4h-.1l-.4-1.9a.6.6 0 00-1-.3l-3.9 3.4-.2.5c0 .3.2.5.4.6l5 1.6h.1a.6.6 0 00.7-.8l-.4-1.8c5.5-2.4 9.3-7.8 9.3-14v-.1zM16 14.7a.6.6 0 010 1.2.6.6 0 010-1.2zm2 14.8l2.3-2 .6 3-2.8-1z"/><path fill="var(--color3, #2196f3)" d="M15.4 3.2v1.3a.6.6 0 001.2 0V3.2a.6.6 0 10-1.2 0zM3.9 14.7a.6.6 0 000 1.2h1.3a.6.6 0 000-1.2H3.9zM28 15.9a.6.6 0 000-1.2h-1.3a.6.6 0 000 1.2h1.3z"/></symbol><symbol id="icon-astronaut" viewBox="0 0 32 32"><path fill="var(--color3, #2196f3)" d="M32 4.5c0-.2-.3-.3-.5-.3l-1.9-.3-.8-1.7c-.2-.4-.8-.4-1 0L27 3.9l-2 .3a.5.5 0 00-.2.9L26 6.4l-.3 2c0 .1 0 .3.2.4.2.2.4.2.6 0l1.7-.8 1.7.9h.3a.5.5 0 00.5-.6l-.3-1.9 1.3-1.3a.5.5 0 00.2-.6zM29.5 6c-.1 0-.2.2-.1.4l.1 1.1-1-.5a.5.5 0 00-.5 0l-1 .5.2-1v-.2l-.1-.3-.8-.8 1.1-.2c.2 0 .3-.1.4-.3l.5-1 .5 1c0 .2.2.3.4.3l1.1.2-.8.8zm-3.4 14.6h-1v1h1v-1zm0 2.2h-1v1h1v-1zm1.1-1.1h-1v1h1v-1zm-2.1 0H24v1h1v-1zm-2.7 4.8h-1v1h1v-1zm0 2.1h-1v1h1v-1zm1-1h-1v1h1v-1zm-2 0h-1.1v1h1v-1zM16 24.3h-1v1h1v-1zm0 2h-1v1.2h1v-1.1zm1-1h-1v1h1v-1zm-2 0h-1.1v1h1v-1zM5.8 6.1H4.8v1h1v-1zm0 2.2H4.8v1h1v-1zm1-1.1H6v1h1v-1zm-2.1 0h-1v1h1v-1z"/><path fill="var(--color4, #212121)" d="M24.7 14.2c-.3-.4-.7-.7-1.2-.7h-.2c-.4 0-.8 0-1.1.3l-1.3 1-1.9 1.4-1.3-.6a7 7 0 00-2.9-13.2A7 7 0 009 13H6.2 6l-3.2 1.6-2 1A1.8 1.8 0 00.2 18c.2.4.6.7 1 .8l.6.1c.3 0 .6 0 .8-.2L4 18l2.3-1.2h1.3l-5.4 5.4-1.3 1.3c-.3.3-.5.8-.5 1.2 0 1 .7 1.7 1.6 1.7.5 0 .9-.2 1.2-.5l1.3-1.3 1.8-1.3.9.9-3.1 3c-.3.4-.5.8-.5 1.3A1.7 1.7 0 005.2 30c.5 0 .9-.1 1.2-.5l4.5-4.4 5.2-5.7 3.5.5a.5.5 0 00.2 0l.1-.1 3.3-2.1 1.3-1.3a1.8 1.8 0 00.2-2.3zM2.1 17.8a.7.7 0 01-.5 0 .7.7 0 01-.2-1.2l1.3-.7.3 1 .1.3-1 .6zm3.5-1.9l-1.5.8-.3-.7-.2-.5 2-1v1.4zm15.1-6.6c0 1-.2 1.8-.6 2.6l-4.2-2c0-.5-.3-1-.7-1.3l1.4-4.9c2.4.8 4.1 3 4.1 5.6zM9 9.3a5.9 5.9 0 016.7-5.8L14 8.3c-1 0-1.9.8-1.9 1.8s.9 1.9 1.9 1.9c.7 0 1.3-.4 1.6-1l3.9 1.8A5.9 5.9 0 018.9 9.3zm6 .8a.8.8 0 01-1.6 0c0-.4.3-.8.8-.8s.8.4.8.8zm-12.4 15a.6.6 0 01-.9 0 .6.6 0 010-.8l1-1 .8.9-1 1zM5.7 29a.6.6 0 01-.9 0 .6.6 0 010-.9l1-1 .8 1-1 .9zm3.5-3.5l-1.8 1.8-.9-.9 1.8-1.7.1-.2v-.1-.1-.1-.1-.1h-.1l-1.6-1.7h-.1l-.1-.1h-.1-.1-.1H6 6l-1.8 1.4-.9-1 2.4-2.3 4.4 4.3-1 1zm6.8-7h-.2-.2v.1l-4.8 5.2-4.3-4.2 2.8-2.9a.5.5 0 00-.4-.9H6.7v-1.6h3.1a7 7 0 005 2.2c.5 0 .9 0 1.3-.2l.1.1 2.4 1 .2.7.2 1-3-.5zm4 .2l-.3-1.6 1.5-1 .9 1.2-2 1.4zm3.8-2.9l-.9.8-.9-1.2.8-.6c.2-.2.4-.2.6-.2a.7.7 0 01.4 1.2z"/><path fill="var(--color4, #212121)" d="M13.6 18.5l-2.1-2a.5.5 0 00-.8 0l-2.1 2-.2.4c0 .1 0 .3.2.4l2.1 2.1a.5.5 0 00.8 0l2.1-2.1a.5.5 0 000-.8zm-2.5 1.8l-1.4-1.4 1.4-1.4 1.4 1.4-1.4 1.4zm6-15.2L17 6s1.7.5 1.7 2.2h1.1c0-2-1.7-3-2.5-3.2zm2.6 4.2h-1v1h1v-1z"/></symbol><symbol id="icon-antenna" viewBox="0 0 32 32"><path fill="var(--color4, #212121)" d="M30.8 22.1l-8.5-8.5 1-4.6.7.1a2.2 2.2 0 10-2-1.4l-5 .6L9 .2a.5.5 0 00-.4-.2c-.1 0-.3 0-.4.2L6.7 1.7a.5.5 0 000 .7l.8.8A14.9 14.9 0 0010 21l.2.1v6.7H3.6a2.7 2.7 0 00-2.6 2.7v1c0 .4.2.6.5.6h24.5c.3 0 .6-.2.6-.5v-1.1c0-1.5-1.2-2.7-2.7-2.7h-6.4V25a15 15 0 0010.2-1.5h-.1l.8.9.4.1.4-.1 1.5-1.5a.5.5 0 000-.8zM23.3 6.2c.2-.2.4-.3.7-.3a1 1 0 010 2.2 1 1 0 01-.7-1.9zM22 9.7l-.6 3-1.1-1.2L22 9.7zm-.6-.9l-1.9 2L18 9.2l3.4-.5zm2.6 20c.9 0 1.6.7 1.6 1.6v.5H2.1v-.5c0-.9.8-1.6 1.6-1.6H24zm-7.5-2.1v1h-5.3v-1h5.3zm-5.3-1.1v-4c0-1.3 1.2-2.4 2.7-2.4s2.6 1 2.6 2.3v4.1h-5.3zm6.4-1.7v-2.4c0-1.8-1.7-3.4-3.7-3.4-1.4 0-2.6.7-3.3 1.8A13.8 13.8 0 018.3 4V4L27 22.7a13.6 13.6 0 01-9.4 1.2h.1zm11.3-.7L7.9 2l.7-.7 8 8 13 13.2-.7.7z"/><path fill="var(--color3, #2196f3)" d="M13.9 20.3a1.6 1.6 0 000 3.2 1.6 1.6 0 000-3.2zm.3 2l-.3.1a.5.5 0 010-1 .5.5 0 01.3.8z"/></symbol><symbol id="icon-logo-6" viewBox="0 0 62 32"><path  d="M31.1 14.9a2.2 2.2 0 01-.4-1.5v-2c0-.7.2-1.2.4-1.5s.7-.5 1.4-.5c.6 0 1 .1 1.3.4.2.4.4.8.3 1.3v.4h-1v-.4-.5l-.2-.3a.6.6 0 00-.4-.1H32l-.2.4v3a1.4 1.4 0 00.1.8l.2.1h.7l.1-.4v-1h1.1v.5c0 .5 0 .9-.3 1.3-.3.3-.7.5-1.3.5-.6 0-1.1-.2-1.4-.6zm4.5 0c-.3-.3-.4-.8-.4-1.4v-2.2c0-.6.1-1.1.4-1.4.3-.3.7-.5 1.4-.5.6 0 1 .2 1.3.5s.4.8.4 1.4v2.2c0 .6-.1 1-.4 1.4s-.7.5-1.3.5c-.7 0-1.1-.2-1.4-.5zm1.9-.5l.1-.7V11l-.1-.6-.2-.2a.5.5 0 00-.3 0h-.1-.2l-.2.2-.2.6v2.7c0 .2 0 .5.2.7l.5.2.5-.2zm2.5-5h1.2l.9 4.1.9-4h1l.2 5.8h-.8l-.1-4-.9 4h-.7l-.8-4-.1 4h-.9l.1-5.8zm5.5 0h1.8c1 0 1.6.6 1.6 1.7 0 1-.6 1.6-1.7 1.6h-.6v2.6h-1.1V9.5zM47 12h.1l.6-.2.1-.7v-.5l-.3-.3h-.9V12h.4zm3.5-2.5h1.2l1.2 5.8h-1l-.3-1.4h-1l-.3 1.4h-1l1.2-5.8zm1 3.8l-.4-2.5-.4 2.5h.8zm2.4-3.8h.8l1.5 3.3V9.5h.9v5.8h-.8l-1.5-3.5v3.5h-1V9.5zm5.4 3.6L58 9.5h1l.8 2.3.7-2.3h1L60.3 13v2.2h-1V13zm-26.5 4.7v.3H32v2.4h-.3V18h-1v-.3h2.2zm2.9 2.7h-.3l-.1-.1-.3-.6h-1.3l-.2.6-.1.1H33l1-2.7h.5l1 2.7zm-1.9-1H35l-.4-1-.1-.3v.1l-.1.1-.5 1.1zm3.8.7H38.2l.1-.1v-.6h-.5v-.3h.9v1c-.3.2-.5.3-.8.3h-.3a1.5 1.5 0 01-1-.4 1.3 1.3 0 01-.4-1v-.5c.2-.3.5-.6.8-.7h1.2l.4.2-.1.2h-.2l-.7-.2h-.4a1 1 0 00-.4.3l-.2.3v1a1 1 0 001 .5zm3.6 0h1.2v.3h-1.6v-2.7h.4v2.4zm2.5.3h-.4v-2.7h.4v2.7zm1.4-2.7l1.7 2.1v-2h.3v2.6H46.8l-1.7-2v2h-.3v-2.7h.2zm4.8 0v.3h-1.3v.9h1v.3h-1v.9h1.3v.3h-1.7v-2.7h1.7zM9.9 1.4l17 4.5v16l-17-4.6v-16zM9 0v18l19 5.2v-18L9 0z"/><path  d="M19.1 31.6L0 26.5V8.4l19.1 5.1v18.1z"/><path d="M9.2 1.2l16.7 4.4-7.1 6.8L2 7.9l7-6.7zM8.9 0L0 8.4l19.1 5.1L28 5.1 8.9 0zm11.3 30.6l7.8-7.4-7.8-2v9.4z"/></symbol><symbol id="icon-logo-5" viewBox="0 0 40 32"><path  d="M3 26.7c.2.2.3.5.3.7 0 .4-.1.7-.4.9-.3.2-.7.3-1 .3H0v-4.3H1.9c.4 0 .7 0 1 .2a1 1 0 01.3.9c0 .2 0 .4-.2.6a1 1 0 01-.6.4c.3 0 .5.1.7.3zM1 26.1h.7c.2 0 .4 0 .5-.2l.2-.3v-.1c0-.2 0-.3-.2-.4a.8.8 0 00-.5-.2H1v1.2zm1.3 1.7l.2-.5c0-.2 0-.3-.2-.4a.8.8 0 00-.5-.2H.9V28h.8l.5-.1zm4.6.8l-1-1.7h-.4v1.7h-.9v-4.3h1.7c.5 0 .8 0 1.1.3a1.4 1.4 0 01.1 1.8c-.2.3-.4.4-.7.5l1 1.7h-1zm-1.4-2.3H6c.5 0 .8-.2.8-.6 0-.3-.1-.4-.2-.5A.8.8 0 006 25h-.7v1.3zm6.2 1.4H9.8l-.3 1h-.9l1.6-4.4h1l1.6 4.3h-1l-.2-.9zm-.3-.6l-.6-1.9-.6 1.9h1.2zm6.3 1.5h-1l-1.9-3v3H14v-4.3h.8l2 3v-3h.8v4.3zm4.9-1c-.2.3-.4.6-.8.7l-1.2.3H19v-4.3h1.5c.5 0 .9 0 1.2.2l.8.8a2.5 2.5 0 010 2.3zm-1-.1a1.6 1.6 0 000-2.1 1.5 1.5 0 00-1-.4h-.7v2.8h.7c.4 0 .7-.1 1-.3zM12.1 0s11.2 4.2 11 10.4v10.4s-11.2-4.3-11-10.4V0zm21 18.3c2-1.4 4.4-2.3 7-2.6v-3.2c-3 1.1-5.4 3.2-7 5.8z"/><path d="M31.8 19.3c1.7-3.5 4.7-6.1 8.3-7.5V2.4s-15.9 6-15.5 14.8V32l1.8-.8v-1.4c.4-4.2 2.4-7.9 5.4-10.5z"/><path d="M30.3 24.8c0-1 .2-2 .5-3-2 2.4-3.3 5.5-3.4 9a44 44 0 003.3-1.8l-.2.1a15 15 0 01-.2-4.3zm.6 0a14.3 14.3 0 00.2 4c4.4-2.7 9.3-6.7 9-11.6v-.4c-3.2.4-6 1.8-8.2 3.9-.5 1.2-.9 2.6-1 4.1z"/></symbol><symbol id="icon-logo-4" viewBox="0 0 60 32"><path  d="M9.2 9.5a3 3 0 00-3 3 3 3 0 003 3 3 3 0 003-3 3 3 0 00-3-3zm22.5-.9c0-2.3-1-4.5-2.6-6a9 9 0 00-12.4 0 8.5 8.5 0 00-2.6 6v12.6s17.6-2 17.6-12.6zM0 25.3a6 6 0 001.8 4.2c1.1 1.1 2.7 1.8 4.3 1.8 1.7 0 3.3-.7 4.4-1.8a6 6 0 001.8-4.2v-8.8S0 18 0 25.3zm6.1 1.6l-.9-.3-.5-.7a1.5 1.5 0 01-.1-1l.4-.7c.2-.2.5-.4.8-.4h1l.7.6a1.5 1.5 0 01.1 1.5 1.6 1.6 0 01-.8.8L6 27zm12.6-1h-1.3v1.3h-.6V24h2v.5h-1.4v.9h1.3v.5zm3.1-.2c0 .3 0 .6-.2.8l-.4.5c-.2.2-.5.2-.7.2-.6 0-1-.3-1.2-.7l-.2-.8v-.2c0-.3 0-.6.2-.8a1.3 1.3 0 011.2-.7c.2 0 .5 0 .7.2.2 0 .3.3.4.5l.2.8v.2zm-.6-.2l-.2-.7a.6.6 0 00-1 0c-.2.1-.2.4-.2.7v.2c0 .3 0 .5.2.7s.2.3.5.3c.2 0 .4-.1.5-.3l.2-.7v-.2zm2.7.8v-.2h-.1c0-.1-.2-.2-.5-.2l-.5-.3c-.4-.2-.5-.4-.5-.8l.1-.4.4-.3a1.6 1.6 0 011.2 0c.2 0 .3.2.4.3l.2.5h-.7l-.1-.3-.4-.1H23v.6l.5.2.8.4.3.6c0 .3-.1.5-.3.7s-.5.2-.9.2l-.6-.1a1 1 0 01-.5-.4 1 1 0 01-.1-.5h.6c0 .3.2.5.6.5h.4l.1-.3zm3.5-1.8h-1v2.7h-.6v-2.7h-1V24h2.6v.5zm2.3 1.3h-1.2v.9h1.4v.5h-2.1V24h2.1v.5h-1.4v.8h1.2v.5zm1.8.2H31v1.2h-.7V24h1.2c.4 0 .7 0 .9.3s.3.4.3.7c0 .2 0 .4-.2.5a1 1 0 01-.4.4l.7 1.2H32l-.6-1zm-.5-.5h.5l.4-.1.1-.4-.1-.3-.4-.2H31v1zm4 .6v1h-.7v-3H36l.5.4.1.6c0 .3-.1.5-.3.7-.2.2-.5.3-.9.3h-.6zm0-.6h.9l.1-.4v-.4l-.5-.2H35v1zm4 .3h-1.2v.9h1.5v.5h-2.1V24h2v.5h-1.4v.8h1.3v.5zm3.1-1.3h-1v2.7h-.6v-2.7h-1V24h2.6v.5zm2.3 1.3H43v.9h1.5v.5h-2.1V24h2.1v.5h-1.5v.8h1.3v.5zm1.8.2h-.6v1.2H45V24h1.2c.3 0 .6 0 .8.3s.3.4.3.7l-.1.5a1 1 0 01-.4.4l.7 1.2h-.7l-.6-1zm-.6-.5h.6l.4-.1V25v-.3l-.4-.2h-.6v1zm3.9.8l-.1-.2-.5-.2-.6-.3c-.3-.2-.5-.4-.5-.8 0-.1 0-.3.2-.4l.4-.3a1.6 1.6 0 011.2 0c.2 0 .3.2.4.3l.1.5h-.6l-.1-.3-.4-.1h-.4l-.1.3.1.3.5.2.8.4c.2.1.2.4.2.6 0 .3 0 .5-.3.7s-.5.2-.8.2l-.7-.1a1 1 0 01-.4-.4 1 1 0 01-.2-.5h.7c0 .3.2.5.6.5h.4v-.3z"/></symbol><symbol id="icon-logo-3" viewBox="0 0 31 32"><path d="M4.7 31.1l.2.2-.4.3-.6.1-.6-.1c-.3-.1-.6-.4-.7-.7a1.6 1.6 0 010-1.2c.2-.3.4-.6.8-.7a1.6 1.6 0 011.1 0l.4.2-.1.2H4.4a1 1 0 00-.5-.2h-.5l-.3.3a1 1 0 00-.2.3v1l.2.3.3.2H4.1c.2 0 .4 0 .6-.2zm4.4-.8v.6l-.3.4-.5.3a1.7 1.7 0 01-1.2 0c-.3-.1-.6-.4-.7-.7a1.6 1.6 0 010-1.2l.3-.4.4-.3h1.2c.3.1.6.4.7.7l.1.6zm-.4 0v-.5c-.1-.2-.3-.4-.6-.5a1.2 1.2 0 00-.8 0c-.3 0-.4.3-.5.5v1c0 .2.2.4.5.5.3.1.6.1.8 0 .3-.1.5-.3.6-.5v-.5zm3.5.5v-.1l1-1.7h.5v2.7h-.3v-2.2l-1 1.7h-.2-.1l-1-1.7v2.2h-.4v-2.8h.4l1 1.8zm3.6-.2v1h-.3V29h1.3l.3.3.2.2v.4a.8.8 0 01-.2.6 1 1 0 01-.3.2h-1zm0-.3h.8l.2-.1.1-.2v-.2-.4a.8.8 0 00-.6-.2h-.5v1.1zm5.2 1.4h-.3-.1v-.1l-.3-.7H19l-.3.7h-.4l1.1-2.7h.4l1.2 2.8zm-2-1h1.2l-.5-1.2v-.2l-.1.1-.5 1.2zm3.6-1.8h.1l1.7 2.2v-2.2h.3v2.8h-.2-.1l-1.7-2.2v2.2h-.3v-2.8h.2zm5 1.7v1h-.4v-1L26 28.9h.4v.1l.7 1 .1.3.1-.1v-.1l.7-1.1h.5l-1 1.6zM12 24.3h.5c2.6-1 4.7-2.9 6.2-5v-.1a13.1 13.1 0 002.3-7.7L18 8.8a15 15 0 01-.7 8.6 16 16 0 01-5.4 6.9z"/><path d="M11 24.2c2.6-1.8 4.5-4.2 5.7-7V17a14.3 14.3 0 00.5-9l-4-3.8a17.8 17.8 0 01-2.3 19.9zm13.7-9.5a14 14 0 01-4.7 7.6L17.6 24c2-.6 3.8-1.6 5.3-2.9 1.4-1.2 2.6-2.8 3.3-4.6v-.1l-1.6-1.6z"/><path d="M24 14.3L21.8 12c0 2.6-.8 5.1-2.2 7.2-1.4 2.1-3.3 3.9-5.6 5h-.1 1.6c2.2-.9 4.1-2.2 5.6-4 1.5-1.6 2.5-3.7 3-6zM11.4 2.7L8.5 0C6 1 3.9 2.5 2.4 4.6.8 6.6 0 9.1 0 11.8c0 3 1 5.7 2.8 7.8 1.9 2.1 4.3 3.7 7.2 4.4a17.6 17.6 0 001.3-21.4zm19.2 11.2c0-3.5-1.5-6.7-3.9-9a13.6 13.6 0 00-14.2-2.8h.1l17.1 16.3c.6-1.4 1-3 1-4.5z"/></symbol><symbol id="icon-logo-2" viewBox="0 0 25 32"><path  d="M10.4 1.8h.6c.8 0 1.5.2 2.2.4V.4c-1-.3-2-.4-3.2-.4h-.2A18 18 0 00.4 2.6V20c2.5-1.3 5.4-2.2 8.4-2.4H9.7v-1.8c-2.4 0-4.7.5-6.9 1.2H3l-.7.2V3.6l.3-.1c2.1-1 4.6-1.7 7.3-1.7h.6z"/><path d="M14.8 3.6a16 16 0 01-3.5-.3h.1v17.2c1.1.3 2.3.5 3.4.5a18.6 18.6 0 009.4-2.6V1.3A19 19 0 0119.7 3h-.1c-1.6.4-3.2.6-4.8.7zm7 .4l.6-.3v13.7l-.3.1a16.8 16.8 0 01-8.5 1.6h-.4V5h.5a19.9 19.9 0 008.2-1.2h-.2zM1.6 26a1 1 0 00-.7-.3H.6a1 1 0 00-.6 1V29l.1.5.2.3.4.2H1c.5 0 1-.4 1-1v-.2h-.6v.4l-.2.1-.2.1-.3-.1v-2.5-.4a.3.3 0 01.3 0h.3v.6H2v-.3c0-.3-.1-.5-.3-.7zm3.6 0a1 1 0 00-1-.2 1 1 0 00-.4.1 1 1 0 00-.3.8V29.4l.3.3.4.2a1 1 0 00.7 0c.4 0 .6-.4.6-.9v-2.3a1 1 0 00-.3-.7zM5 29a.4.4 0 01-.1.3.4.4 0 01-.6 0V26.7a.4.4 0 010-.3.4.4 0 01.6 0l.1.3V29zm5 1v-4.3h-.5L8.7 28l-.8-2.3h-.6V30H8v-2.6l.6 1.8h.3l.6-1.8V30h.6zm3.5-4l-.3-.2h-1.4V30h.6v-1.7h.3l.6-.1.5-.7a3 3 0 000-1.1 1 1 0 00-.3-.4zm-.3 1.3v.2l-.2.2h-.6v-1.4h.6l.2.2v.8zm3.2-1.6h-.5l-1 4.3h.7l.1-1h.9l.1 1h.6l-1-4.3zm-.6 2.8l.3-1.6.3 1.6h-.6zm4.5-.2l-1-2.6h-.5V30h.6v-2.6l1 2.6h.5v-4.3h-.6v2.6zm3.7-2.6l-.5 1.7-.5-1.7h-.7l.9 2.5V30h.6v-1.8l.8-2.5H24zM0 31.2h.3v.8h.2v-.8h.3V31H0v.2zm2.4-.2l-.3 1h.2v-.2h.5v.2H3l-.3-1h-.3zm0 .6l.1-.4.2.4h-.3zm2.5 0H5v.1l-.2.1h-.2l-.1-.3c0-.2 0-.3.3-.3l.2.1h.2c0-.2-.2-.3-.4-.3l-.4.1a.5.5 0 00-.1.4l.1.4.3.1c.2 0 .4 0 .5-.2v-.3h-.4v.1zm2.4-.6h-.2v1h.7v-.2h-.5V31zm2.1 0h-.2v1h.2v-1zm2 .7l-.3-.7h-.2v1h.2v-.7l.4.7h.1v-1h-.1v.7zm2-.1h.4v-.2h-.5v-.2h.5V31h-.7v1h.8v-.2h-.6v-.2zm4.4-.2h-.4V31h-.2v1h.2v-.4h.4v.4h.2v-1h-.2v.4zm1.8.2h.5v-.2h-.5v-.2h.6V31h-.7v1h.7v-.2h-.6v-.2zm2.6 0l.2-.3a.2.2 0 000-.2L22 31h-.5v1h.2v-.4h.2l.3.4h.2l-.1-.2-.2-.3zm-.2-.2h-.2v-.2h.4v.2H22zm2 .2h.6v-.2H24v-.2h.5V31h-.7v1h.7v-.2h-.5v-.2z"/></symbol><symbol id="icon-logo-1" viewBox="0 0 29 32"><path  d="M3.8 0l4.7 4.4h13v12.4l4.7 4.4V0H3.8z"/><path  d="M0 4.2v20.6h21.8v-8.2L8.7 4.2H0zm17.6 17.6H3.4V8h1v12.9h13.2v1zM6.3 28.7l.5-1.1h.4L6.5 29v.9H6V29l-.8-1.4h.4l.6 1zm2.2.6h-.9l-.1.6H7l.9-2.3h.3l1 2.3h-.5l-.2-.6zm-.8-.3h.7l-.3-1-.4 1zm2.4.2V29l.4-.4-.2-.2V28l.1-.4.5-.1.4.1.1.4v.2l-.3.3H11l.4.6v-.4h.4c0 .3 0 .5-.2.7l.4.4h-.5l-.1-.2a1 1 0 01-.6.2c-.2 0-.4 0-.5-.2a.6.6 0 01-.2-.4zm.7.4l.4-.1-.5-.6-.3.3c0 .1 0 .2.2.3h.2zm-.2-1.5c0 .1 0 .2.2.3h.2v-.1l.1-.2v-.2h-.4v.2zm4.1 1c0 .3 0 .4-.2.6a1 1 0 01-.6.2l-.5-.1a.9.9 0 01-.3-.4l-.2-.5v-.3c0-.2 0-.4.2-.5a.9.9 0 01.8-.5c.2 0 .4 0 .6.2l.2.5h-.3l-.2-.3-.3-.1c-.2 0-.3 0-.4.2l-.2.5v.2c0 .3 0 .4.2.6l.3.2.4-.1.2-.4h.3zm2.2-.3l-.1.6-.3.4a1 1 0 01-1 0 .9.9 0 01-.3-.4l-.2-.6v-.1l.1-.6.4-.4.5-.1c.4 0 .7.2.8.5l.1.6zm-.4-.1l-.1-.6-.4-.2c-.2 0-.3 0-.4.2a1 1 0 00-.2.5v.2c0 .2 0 .4.2.6l.4.2.4-.2.1-.6v-.1z"/></symbol><symbol id="icon-mail" viewBox="0 0 43 32"><path d="M38.7 0H4a4 4 0 00-4 4v24a4 4 0 004 4h34.7a4 4 0 004-4V4a4 4 0 00-4-4zm0 2.7h.5L21.3 18.3 3.5 2.8l.5-.1h34.7zm0 26.6H4c-.7 0-1.3-.6-1.3-1.3V5.6L20.5 21c.2.2.5.3.8.3s.7 0 1-.3L40 5.6V28c0 .7-.6 1.3-1.3 1.3z"/></symbol><symbol id="icon-btn-close" viewBox="0 0 32 32"><path d="M32 3.2l-3.2-3.2-12.8 12.8-12.8-12.8-3.2 3.2 12.8 12.8-12.8 12.8 3.2 3.2 12.8-12.8 12.8 12.8 3.2-3.2-12.8-12.8 12.8-12.8z"></path></symbol> <svg aria-hidden="true" style="position:absolute;width:0;height:0" xmlns="http://www.w3.org/2000/svg" overflow="hidden"><defs><symbol id="icon-phone" viewBox="0 0 32 32"><path d="M24.889 19.769l-3.271-.356c-.782-.107-1.564.178-2.116.711l-2.364 2.382c-3.67-1.894-6.586-4.81-8.429-8.372l-.051-.108 2.382-2.382c.551-.551.818-1.333.729-2.116l-.356-3.236c-.156-1.288-1.243-2.276-2.56-2.276h-2.24c-1.458 0-2.667 1.209-2.578 2.667.716 10.991 9.453 19.729 20.38 20.441l.065.003c1.458.089 2.667-1.12 2.667-2.578v-2.222c0-1.316-.96-2.4-2.258-2.56z"/></symbol><symbol id="icon-person" viewBox="0 0 32 32"><path d="M16 16c2.946 0 5.333-2.388 5.333-5.333S18.945 5.334 16 5.334c-2.946 0-5.333 2.388-5.333 5.333S13.055 16 16 16zm0 2.667c-3.556 0-10.667 1.778-10.667 5.333v1.333c0 .729.604 1.333 1.333 1.333h18.667c.729 0 1.333-.604 1.333-1.333V24c0-3.556-7.111-5.333-10.667-5.333z"/></symbol><symbol id="icon-email" viewBox="0 0 32 32"><path d="M26.667 5.333H5.334c-1.467 0-2.652 1.2-2.652 2.667l-.014 16c0 1.467 1.2 2.667 2.667 2.667h21.333c1.467 0 2.667-1.2 2.667-2.667V8c0-1.467-1.2-2.667-2.667-2.667zm-.534 5.668l-9.426 5.892c-.201.126-.446.2-.708.2s-.506-.075-.713-.204l.006.003L5.866 11c-.336-.201-.557-.562-.557-.975 0-.625.507-1.132 1.132-1.132.233 0 .449.07.629.19l-.004-.003 8.933 5.586 8.933-5.588c.176-.118.392-.188.624-.188.625 0 1.132.507 1.132 1.132 0 .413-.221.775-.552.972l-.005.003z"/></symbol><symbol id="icon-check" viewBox="0 0 34 32"><path fill="var(--color1, #fff)"  stroke-width=".427" d="M8.442 16.538l-.147-.141-.147.139-2.057 1.95.162.156 7.605 7.253.147-.141 16.171-15.426-.162-.154-2.029-1.935-.147.141-13.98 13.325-5.417-5.167z"/></symbol><symbol id="icon-telegram" viewBox="0 0 32 32"><path fill="var(--color1, #fff)" d="M32 0L0 18l10.227 3.787L26 7 14 23.187V32l5.733-6.693L27 28l5-28z"/></symbol></defs></svg>