<svg aria-hidden="true" style="position:absolute;width:0;height:0" xmlns="http://www.w3.org/2000/svg" overflow="hidden"><defs><symbol id="icon-phone-icon" viewBox="0 0 32 32"><path d="M24.889 19.769l-3.271-.356c-.782-.107-1.564.178-2.116.711l-2.364 2.382c-3.67-1.894-6.586-4.81-8.429-8.372l-.051-.108 2.382-2.382c.551-.551.818-1.333.729-2.116l-.356-3.236c-.156-1.288-1.243-2.276-2.56-2.276h-2.24c-1.458 0-2.667 1.209-2.578 2.667.716 10.991 9.453 19.729 20.38 20.441l.065.003c1.458.089 2.667-1.12 2.667-2.578v-2.222c0-1.316-.96-2.4-2.258-2.56z"/></symbol><symbol id="icon-person" viewBox="0 0 32 32"><path d="M16 16c2.946 0 5.333-2.388 5.333-5.333S18.945 5.334 16 5.334c-2.946 0-5.333 2.388-5.333 5.333S13.055 16 16 16zm0 2.667c-3.556 0-10.667 1.778-10.667 5.333v1.333c0 .729.604 1.333 1.333 1.333h18.667c.729 0 1.333-.604 1.333-1.333V24c0-3.556-7.111-5.333-10.667-5.333z"/></symbol><symbol id="icon-email" viewBox="0 0 32 32"><path d="M26.667 5.333H5.334c-1.467 0-2.652 1.2-2.652 2.667l-.014 16c0 1.467 1.2 2.667 2.667 2.667h21.333c1.467 0 2.667-1.2 2.667-2.667V8c0-1.467-1.2-2.667-2.667-2.667zm-.534 5.668l-9.426 5.892c-.201.126-.446.2-.708.2s-.506-.075-.713-.204l.006.003L5.866 11c-.336-.201-.557-.562-.557-.975 0-.625.507-1.132 1.132-1.132.233 0 .449.07.629.19l-.004-.003 8.933 5.586 8.933-5.588c.176-.118.392-.188.624-.188.625 0 1.132.507 1.132 1.132 0 .413-.221.775-.552.972l-.005.003z"/></symbol><symbol id="icon-check" viewBox="0 0 34 32"><path fill="var(--color1, #2196f3)" d="M4.267 0h25.6c2.356 0 4.267 1.91 4.267 4.267v23.467c0 2.356-1.91 4.267-4.267 4.267h-25.6C1.911 32.001 0 30.091 0 27.734V4.267C0 1.911 1.91 0 4.267 0z"/><path fill="var(--color2, #fff)" stroke="var(--color2, #fff)" stroke-width=".4267" d="M8.533 16.64l-.213-.213-2.133 1.92v.213l7.467 7.253h.213l16.213-15.36v-.213l-2.133-1.92-14.08 13.44-5.333-5.12z"/></symbol></defs></svg>