<svg width="144" height="20" fill="none" xmlns="http://www.w3.org/2000/svg"><path d="M8.242.592h3.328l2.106 6.11 2.132-6.11h3.302L15.938 8.99l2.34 5.876L23.504.539999h3.9L20.02 19h-3.094l-3.25-7.748L10.452 19H7.358L0 .539999h3.848L9.1 14.866l2.288-5.876L8.242.592zM34.227 19.26c-1.4734 0-2.7474-.3207-3.822-.962-1.0574-.6413-1.8807-1.4907-2.47-2.548-.5894-1.0747-.884-2.236-.884-3.484 0-1.2827.286-2.46133.858-3.536.5893-1.092 1.4213-1.95867 2.496-2.6 1.0746-.65867 2.3573-.988 3.848-.988 1.4906 0 2.7646.32933 3.822.988 1.0573.64133 1.8633 1.49933 2.418 2.574.572 1.05733.858 2.2013.858 3.432 0 .4507-.026.8407-.078 1.17h-10.53c.0866 1.0573.4766 1.8893 1.17 2.496.7106.6067 1.5253.91 2.444.91.6933 0 1.3433-.1647 1.95-.494.624-.3467 1.0486-.7973 1.274-1.352l2.99.832c-.5027 1.04-1.3087 1.898-2.418 2.574-1.1094.6587-2.418.988-3.926.988zm-3.562-8.164h7.124c-.104-1.0227-.494-1.846-1.17-2.47-.6587-.64133-1.4647-.962-2.418-.962-.936 0-1.742.32067-2.418.962-.6587.624-1.0314 1.4473-1.118 2.47zm21.3364 8.164c-1.04 0-1.9673-.234-2.782-.702-.8146-.468-1.456-1.1093-1.924-1.924V19h-3.042V.0199995h3.484V7.768c.4854-.81467 1.118-1.456 1.898-1.924.7974-.468 1.7247-.702 2.782-.702 1.1787 0 2.21.32933 3.094.988.9014.64133 1.6034 1.49933 2.106 2.574.5027 1.07467.754 2.2533.754 3.536 0 1.3173-.2773 2.5047-.832 3.562-.5546 1.0573-1.3173 1.898-2.288 2.522-.9533.624-2.0366.936-3.25.936zm-.962-2.964c.7454 0 1.3954-.182 1.95-.546.572-.364 1.014-.8493 1.326-1.456.3294-.624.494-1.3.494-2.028 0-.7453-.156-1.43-.468-2.054-.2946-.64133-.7106-1.15267-1.248-1.534-.5373-.38133-1.1526-.572-1.846-.572-.7626 0-1.4646.26-2.106.78-.624.50267-1.092 1.1267-1.404 1.872v3.25c.2254.676.6674 1.2307 1.326 1.664.6587.416 1.3174.624 1.976.624z" fill="#2196F3"/><path d="M72.8479 5.376c-.156-.17333-.4853-.39867-.988-.676-.5026-.29467-1.1093-.55467-1.82-.78-.6933-.24267-1.4126-.364-2.158-.364-1.9586 0-2.938.69333-2.938 2.08 0 .50267.156.90133.468 1.196.312.29467.78.546 1.404.754.624.208 1.404.43333 2.34.676 1.2134.312 2.262.676 3.146 1.092.9014.416 1.586.9707 2.054 1.664.4854.676.728 1.5773.728 2.704 0 1.3173-.3206 2.3833-.962 3.198-.624.7973-1.456 1.378-2.496 1.742-1.04.364-2.1666.546-3.38.546-1.3866 0-2.7646-.208-4.134-.624-1.352-.4333-2.5566-1.0227-3.614-1.768l1.586-3.094c.156.156.4334.364.832.624.3987.2427.884.494 1.456.754.572.2427 1.196.4507 1.872.624.676.1733 1.3607.26 2.054.26 1.976 0 2.964-.6327 2.964-1.898 0-.5373-.1993-.9707-.598-1.3-.3986-.3293-.962-.6067-1.69-.832-.7106-.2253-1.5426-.4767-2.496-.754-1.1786-.3293-2.158-.6933-2.938-1.092-.7626-.416-1.3346-.92733-1.716-1.534-.3813-.624-.572-1.41267-.572-2.366 0-1.26533.2947-2.32267.884-3.172.6067-.86667 1.4214-1.51667 2.444-1.95 1.0227-.450667 2.158-.676001 3.406-.676001 1.2827 0 2.4787.208 3.588.624001 1.1094.416 2.0627.89267 2.86 1.43l-1.586 2.912zm13.2487 12.922c-.468.208-1.0487.416-1.742.624-.676.208-1.378.312-2.106.312-.6414 0-1.2307-.1127-1.768-.338-.5374-.2253-.9707-.5807-1.3-1.066-.312-.5027-.468-1.1527-.468-1.95V8.054h-1.794V5.376h1.794V.956h3.484v4.42h2.86v2.678h-2.86v6.656c0 .468.1213.806.364 1.014.26.208.572.312.936.312.364 0 .7193-.0607 1.066-.182.3466-.1213.624-.2253.832-.312l.702 2.756zm2.4645-4.394V5.376h3.484v7.774c0 2.0973.754 3.146 2.262 3.146.676 0 1.326-.1993 1.95-.598.6413-.416 1.1613-1.04 1.56-1.872v-8.45h3.4839V15.1c0 .3813.061.65.182.806.121.1387.338.2253.65.26V19c-.347.0693-.641.1127-.884.13-.225.0173-.433.026-.624.026-.624 0-1.1353-.1387-1.5339-.416-.3814-.2947-.6067-.6933-.676-1.196l-.078-1.092c-.6067.936-1.3867 1.638-2.34 2.106-.9534.468-2.002.702-3.146.702-1.404 0-2.47-.4507-3.198-1.352-.728-.9187-1.092-2.2533-1.092-4.004zm16.1499-1.716c0-1.3.26-2.48733.78-3.562.52-1.07467 1.24-1.924 2.158-2.548.919-.624 1.968-.936 3.146-.936 1.006 0 1.907.25133 2.704.754.815.48533 1.448 1.10933 1.898 1.872V.0199995h3.484V15.1c0 .3813.061.65.182.806.122.1387.33.2253.624.26V19c-.624.1213-1.118.182-1.482.182-.624 0-1.144-.156-1.56-.468-.398-.312-.624-.7193-.676-1.222l-.052-.858c-.502.8493-1.187 1.4993-2.054 1.95-.849.4507-1.742.676-2.678.676-1.265 0-2.383-.312-3.354-.936-.97-.6413-1.733-1.4907-2.288-2.548-.554-1.0747-.832-2.2707-.832-3.588zm10.686 1.82v-3.25c-.277-.76267-.754-1.39533-1.43-1.898-.676-.50267-1.369-.754-2.08-.754-.71 0-1.334.19933-1.872.598-.537.38133-.953.89267-1.248 1.534-.294.624-.442 1.3-.442 2.028 0 .7453.165 1.43.494 2.054.33.6067.772 1.092 1.326 1.456.572.3467 1.222.52 1.95.52.659 0 1.309-.2167 1.95-.65.659-.4333 1.11-.9793 1.352-1.638zm7.684-10.53V.0199995h3.484V3.478h-3.484zm0 15.522V5.376h3.484V19h-3.484zm13.699.26c-1.491 0-2.773-.3207-3.848-.962-1.057-.6587-1.872-1.5253-2.444-2.6-.572-1.0747-.858-2.236-.858-3.484 0-1.2653.286-2.43533.858-3.51.589-1.07467 1.413-1.93267 2.47-2.574 1.075-.65867 2.349-.988 3.822-.988 1.473 0 2.739.32933 3.796.988 1.075.64133 1.898 1.49933 2.47 2.574.572 1.07467.858 2.2447.858 3.51 0 1.248-.286 2.4093-.858 3.484-.572 1.0747-1.395 1.9413-2.47 2.6-1.057.6413-2.323.962-3.796.962zm-3.562-7.046c0 .7973.156 1.508.468 2.132.312.6067.737 1.0833 1.274 1.43s1.144.52 1.82.52c.659 0 1.257-.1733 1.794-.52.537-.364.962-.8493 1.274-1.456.329-.624.494-1.3347.494-2.132 0-.78-.165-1.4733-.494-2.08-.312-.624-.737-1.10933-1.274-1.456-.537-.364-1.135-.546-1.794-.546-.676 0-1.283.182-1.82.546-.537.34667-.962.832-1.274 1.456-.312.6067-.468 1.3087-.468 2.106z" fill="#fff"/></svg>